<?xml version="1.0" encoding="utf-8"?>
<!-- Generator: Adobe Illustrator 16.0.0, SVG Export Plug-In . SVG Version: 6.00 Build 0)  -->
<!DOCTYPE svg PUBLIC "-//W3C//DTD SVG 1.1//EN" "http://www.w3.org/Graphics/SVG/1.1/DTD/svg11.dtd">
<svg version="1.1" id="Layer_1" xmlns="http://www.w3.org/2000/svg" xmlns:xlink="http://www.w3.org/1999/xlink" x="0px" y="0px"
	 width="960px" height="560px" viewBox="0 0 960 560" enable-background="new 0 0 960 560" xml:space="preserve">
<rect x="208" y="217" width="519" height="111"/>
<rect x="208" y="217" transform="matrix(0.9881 -0.1537 0.1537 0.9881 -36.325 75.0843)" width="519" height="111"/>
<g>
	<path fill="#FFFFFF" d="M290.118,266.484l-2.307,3.751l-0.385-0.213c0.091-0.376,0.137-0.621,0.137-0.735
		c0-0.222-0.097-0.427-0.29-0.615c-0.194-0.188-0.459-0.375-0.795-0.56c-0.336-0.185-0.513-0.283-0.53-0.295
		c-1.704-0.979-3.581-1.47-5.631-1.47c-1.543,0-2.977,0.331-4.298,0.991c-1.322,0.661-2.377,1.597-3.166,2.807
		s-1.184,2.593-1.184,4.148c0,1.652,0.392,3.078,1.175,4.277c0.783,1.199,1.85,2.11,3.2,2.734c1.351,0.624,2.834,0.936,4.452,0.936
		c1.242,0,2.47-0.185,3.683-0.556c1.214-0.37,2.259-0.919,3.136-1.649v-3.538h-4.307c-0.45,0-0.781,0.079-0.991,0.235
		c-0.211,0.157-0.371,0.452-0.479,0.884h-0.487v-4.059h0.487c0.114,0.422,0.275,0.708,0.483,0.859
		c0.208,0.151,0.537,0.226,0.987,0.226h7.528v0.453c-0.421,0.097-0.708,0.253-0.858,0.47c-0.151,0.217-0.227,0.55-0.227,1v2
		c0,0.45,0.074,0.781,0.222,0.991c0.148,0.211,0.436,0.371,0.863,0.479v0.384c-1.424,1.248-3.002,2.194-4.733,2.841
		c-1.732,0.646-3.538,0.971-5.418,0.971c-3.195,0-5.796-0.829-7.801-2.486c-1.042-0.877-1.881-1.963-2.517-3.256
		c-0.635-1.293-0.953-2.609-0.953-3.948c0-1.555,0.296-2.969,0.889-4.242c0.592-1.273,1.413-2.353,2.461-3.239
		c1.048-0.886,2.254-1.558,3.619-2.017c1.364-0.458,2.81-0.688,4.336-0.688c2.438,0,4.854,0.653,7.246,1.957l0.735,0.385
		c0.302,0.142,0.479,0.213,0.529,0.213c0.223,0,0.49-0.233,0.804-0.701L290.118,266.484z"/>
	<path fill="#FFFFFF" d="M306.356,278.422H296.32l-1.469,3.221c-0.165,0.359-0.248,0.688-0.248,0.983
		c0.028,0.33,0.319,0.575,0.871,0.734v0.453h-4.723v-0.453c0.74-0.159,1.313-0.661,1.717-1.504l6.611-14.424
		c0.353-0.803,0.53-1.35,0.53-1.641c0-0.376-0.293-0.586-0.88-0.632v-0.496h5.561v0.496c-0.558,0.097-0.837,0.33-0.837,0.7
		c0,0.188,0.035,0.383,0.106,0.585c0.071,0.203,0.164,0.417,0.278,0.645c0.114,0.228,0.219,0.436,0.316,0.624l6.056,13.228
		c0.364,0.769,0.689,1.345,0.974,1.726c0.285,0.383,0.695,0.613,1.23,0.692v0.453h-5.005v-0.453
		c0.535-0.103,0.803-0.313,0.803-0.632c0-0.074-0.008-0.135-0.025-0.184s-0.036-0.096-0.056-0.142s-0.038-0.088-0.055-0.128
		L306.356,278.422z M305.519,276.567l-4.168-9.382l-4.229,9.382H305.519z"/>
	<path fill="#FFFFFF" d="M317.897,275.166v6.725c0,0.444,0.077,0.768,0.231,0.971c0.154,0.201,0.45,0.368,0.889,0.499v0.453h-4.657
		v-0.453c0.433-0.125,0.722-0.289,0.867-0.491c0.145-0.202,0.218-0.528,0.218-0.979v-15.263c0-0.456-0.074-0.789-0.222-1
		c-0.148-0.211-0.436-0.368-0.863-0.47v-0.494h11.378c1.134,0,2.128,0.079,2.983,0.235s1.622,0.488,2.3,0.995
		c0.638,0.456,1.131,1.034,1.479,1.735s0.522,1.453,0.522,2.256c0,3.031-1.817,4.734-5.452,5.11l4.787,7.597
		c0.268,0.427,0.723,0.695,1.365,0.803v0.419h-4.717v-0.453c0.444-0.125,0.667-0.265,0.667-0.419c0-0.096-0.129-0.379-0.386-0.846
		l-4.42-6.93H317.897z M317.897,273.277h7.32c1.75,0,3.098-0.185,4.044-0.556c0.946-0.371,1.419-1.284,1.419-2.738
		c0-0.508-0.109-0.999-0.329-1.472c-0.219-0.474-0.529-0.858-0.928-1.155c-0.804-0.536-2.123-0.804-3.959-0.804h-7.567V273.277z"/>
	<path fill="#FFFFFF" d="M348.002,283.813l-8.126-16.133v14.21c0,0.45,0.073,0.776,0.218,0.979c0.146,0.203,0.435,0.366,0.868,0.491
		v0.453h-4.238v-0.453c0.433-0.125,0.722-0.288,0.867-0.491c0.145-0.202,0.218-0.528,0.218-0.979V266.63
		c0-0.456-0.074-0.789-0.222-1c-0.148-0.21-0.436-0.367-0.863-0.47v-0.496h5.853v0.496c-0.587,0.114-0.88,0.324-0.88,0.632
		c0,0.223,0.14,0.619,0.419,1.188l6.059,12.21l6.058-12.21c0.279-0.518,0.418-0.892,0.418-1.12c0-0.342-0.279-0.575-0.837-0.7
		v-0.496h5.845v0.496c-0.416,0.103-0.701,0.26-0.854,0.474c-0.154,0.213-0.231,0.545-0.231,0.996v15.261
		c0,0.439,0.075,0.761,0.227,0.966c0.151,0.205,0.437,0.373,0.859,0.504v0.453h-4.623v-0.453c0.427-0.131,0.715-0.298,0.863-0.499
		c0.148-0.203,0.222-0.526,0.222-0.971v-14.21L348.002,283.813z"/>
	<path fill="#FFFFFF" d="M367.278,274.85v7.075h11.835c0.45,0,0.783-0.075,1-0.226c0.216-0.151,0.373-0.438,0.47-0.859h0.487v4.059
		h-0.488c-0.097-0.422-0.253-0.707-0.47-0.858c-0.216-0.151-0.55-0.227-1-0.227h-15.371v-0.487c0.427-0.107,0.714-0.268,0.863-0.479
		c0.148-0.211,0.222-0.541,0.222-0.991v-15.263c0-0.456-0.074-0.789-0.222-1c-0.148-0.211-0.436-0.368-0.863-0.47v-0.459h15.26
		c0.45,0,0.782-0.078,0.996-0.235c0.214-0.156,0.372-0.437,0.475-0.841h0.462v4.05h-0.462c-0.097-0.427-0.252-0.72-0.465-0.88
		c-0.214-0.159-0.548-0.239-1.004-0.239h-11.724v6.477h7.46c0.45,0,0.782-0.08,0.996-0.239c0.213-0.159,0.372-0.453,0.474-0.88
		h0.487v4.059h-0.487c-0.103-0.41-0.261-0.693-0.474-0.85c-0.214-0.157-0.546-0.235-0.996-0.235H367.278z"/>
	<path fill="#FFFFFF" d="M387.752,267.681v14.21c0,0.45,0.073,0.776,0.218,0.979c0.146,0.203,0.435,0.366,0.868,0.491v0.453H384.6
		v-0.453c0.433-0.125,0.722-0.288,0.867-0.491c0.145-0.202,0.218-0.528,0.218-0.979V266.63c0-0.456-0.074-0.789-0.222-1
		c-0.148-0.21-0.436-0.367-0.863-0.47v-0.496h6.237v0.496c-0.609,0.148-0.914,0.416-0.914,0.803c0,0.376,0.222,0.809,0.667,1.299
		l11.271,12.63V266.63c0-0.456-0.074-0.789-0.223-1c-0.148-0.21-0.436-0.367-0.863-0.47v-0.496h4.238v0.496
		c-0.427,0.103-0.715,0.259-0.863,0.47c-0.148,0.211-0.223,0.544-0.223,1v15.261c0,0.45,0.073,0.776,0.218,0.979
		c0.145,0.203,0.434,0.366,0.867,0.491v0.453h-5.007v-0.453c0.325-0.108,0.551-0.196,0.679-0.265
		c0.128-0.068,0.192-0.202,0.192-0.401c0-0.245-0.065-0.45-0.197-0.615c-0.131-0.165-0.345-0.405-0.641-0.718L387.752,267.681z"/>
	<path fill="#FFFFFF" d="M418.309,266.519v15.372c0,0.443,0.077,0.768,0.231,0.97s0.45,0.369,0.889,0.5v0.453h-4.657v-0.453
		c0.433-0.126,0.722-0.289,0.867-0.491c0.145-0.203,0.218-0.529,0.218-0.979v-15.372h-6.229c-0.45,0-0.78,0.079-0.991,0.235
		c-0.21,0.157-0.37,0.452-0.479,0.884h-0.453v-4.05h0.453c0.108,0.41,0.27,0.692,0.483,0.846c0.214,0.154,0.542,0.23,0.987,0.23
		h14.945c0.438,0,0.763-0.078,0.974-0.235c0.21-0.156,0.364-0.437,0.461-0.841h0.487v4.05h-0.487c-0.097-0.427-0.253-0.72-0.47-0.88
		c-0.217-0.159-0.55-0.239-1-0.239H418.309z"/>
	<path fill="#FFFFFF" d="M447.353,265.675l-1.854,3.706l-0.418-0.167c0.045-0.331,0.068-0.576,0.068-0.736
		c0-0.205-0.108-0.38-0.325-0.526c-0.216-0.146-0.47-0.287-0.76-0.424c-1.55-0.838-3.415-1.258-5.597-1.258
		c-1.635,0-3.151,0.287-4.55,0.86c-1.399,0.574-2.098,1.559-2.098,2.956c0,0.553,0.155,1.051,0.465,1.493s0.739,0.763,1.286,0.962
		c0.615,0.2,1.396,0.339,2.341,0.419c0.558,0.017,1.169,0.042,1.833,0.077c0.664,0.034,1.197,0.057,1.602,0.068
		c1.538,0.052,2.757,0.136,3.657,0.252c0.9,0.117,1.731,0.395,2.495,0.833c0.718,0.41,1.259,0.979,1.624,1.705
		c0.364,0.727,0.547,1.522,0.547,2.389c0,1.367-0.456,2.497-1.367,3.388c-0.911,0.892-2.046,1.541-3.404,1.948
		s-2.695,0.611-4.01,0.611c-2.272,0-4.43-0.408-6.474-1.223c-0.991-0.398-1.854-0.794-2.588-1.188
		c-0.159-0.119-0.287-0.18-0.384-0.18c-0.159,0-0.367,0.129-0.623,0.385l-0.179,0.214l-0.384-0.248l2.167-3.64l0.417,0.213
		c-0.113,0.114-0.17,0.359-0.17,0.735c0,0.12,0.07,0.252,0.209,0.397c0.139,0.145,0.314,0.286,0.524,0.423
		c0.21,0.137,0.413,0.256,0.609,0.359s0.328,0.174,0.396,0.213c1.959,1.031,4.084,1.547,6.375,1.547
		c0.945,0,1.919-0.124,2.922-0.372c1.002-0.248,1.857-0.666,2.563-1.256c0.706-0.589,1.06-1.366,1.06-2.328
		c0-0.53-0.152-1.019-0.457-1.466c-0.305-0.447-0.702-0.765-1.192-0.953c-0.484-0.159-0.989-0.273-1.513-0.342
		c-0.524-0.068-1.198-0.115-2.021-0.141c-0.823-0.025-1.255-0.038-1.294-0.038c-1.667-0.08-2.887-0.157-3.658-0.231
		c-0.771-0.074-1.624-0.269-2.557-0.585c-0.933-0.316-1.693-0.821-2.279-1.517c-0.586-0.695-0.879-1.632-0.879-2.812
		c0-1.367,0.453-2.493,1.358-3.379c0.905-0.886,2.03-1.531,3.374-1.935c1.343-0.405,2.67-0.607,3.98-0.607
		c2.596,0,5.093,0.536,7.49,1.608c0.341,0.136,0.541,0.204,0.598,0.204c0.228,0,0.447-0.207,0.658-0.621L447.353,265.675z"/>
	<path fill="#FFFFFF" d="M482.963,270.886v3.596h-0.389c-0.005-0.054-0.015-0.151-0.029-0.293s-0.045-0.253-0.092-0.333
		c-0.047-0.081-0.115-0.121-0.209-0.121c-0.566,0-1.188,0.492-1.863,1.476c-0.677,0.984-1.286,2.001-1.828,3.051
		c0.508,1.25,1.138,2.141,1.89,2.673c0.596,0.44,1.165,0.659,1.707,0.659c0.249,0,0.391-0.251,0.425-0.754h0.389v2.974
		c-1.572,0-2.784-0.259-3.633-0.776c-0.981-0.562-1.721-1.453-2.219-2.673c-1.538,2.539-3.895,3.808-7.071,3.808
		c-2.27,0-4.07-0.648-5.403-1.947c-0.59-0.566-1.053-1.229-1.387-1.989c-0.334-0.759-0.501-1.537-0.501-2.333
		c0-0.84,0.213-1.65,0.639-2.432c0.426-0.781,0.982-1.431,1.668-1.948c0.732-0.537,1.682-0.977,2.849-1.318
		c-1.719-0.85-2.578-2.119-2.578-3.809c0-0.679,0.158-1.338,0.472-1.978c0.315-0.64,0.746-1.182,1.293-1.626
		c1.089-0.879,2.568-1.318,4.438-1.318c1.05,0,2.026,0.208,2.93,0.623s1.626,1.015,2.168,1.798c0.542,0.784,0.813,1.708,0.813,2.772
		c0,0.928-0.293,1.739-0.879,2.436c-0.586,0.695-1.343,1.212-2.271,1.549c1.543,0.791,2.634,1.992,3.274,3.604
		C479.02,272.998,480.819,271.208,482.963,270.886z M465.055,277.903c0,0.874,0.249,1.636,0.747,2.285s1.146,1.142,1.944,1.476
		c0.799,0.334,1.63,0.502,2.494,0.502c1.523,0,2.893-0.53,4.109-1.59c0.962-0.781,1.443-1.563,1.443-2.344
		c0-0.576-0.155-1.151-0.465-1.725c-0.311-0.574-0.705-1.078-1.183-1.513c-0.493-0.469-1.069-0.826-1.729-1.073
		c-0.659-0.246-1.343-0.37-2.051-0.37c-0.894,0-1.75,0.166-2.567,0.498c-0.818,0.332-1.479,0.827-1.985,1.483
		C465.308,276.19,465.055,276.98,465.055,277.903z M475.221,268.63c0-0.669-0.18-1.258-0.538-1.769
		c-0.359-0.51-0.834-0.902-1.425-1.175s-1.216-0.41-1.875-0.41c-1.118,0-2.038,0.27-2.758,0.809c-0.72,0.54-1.08,1.349-1.08,2.428
		c0,0.972,0.417,1.73,1.252,2.274c0.835,0.545,1.758,0.817,2.769,0.817c0.61,0,1.198-0.115,1.761-0.344
		c0.564-0.229,1.021-0.567,1.37-1.015C475.046,269.799,475.221,269.26,475.221,268.63z"/>
	<path fill="#FFFFFF" d="M505.814,266.519v15.372c0,0.443,0.078,0.768,0.231,0.97s0.45,0.369,0.889,0.5v0.453h-4.657v-0.453
		c0.434-0.126,0.723-0.289,0.867-0.491c0.146-0.203,0.219-0.529,0.219-0.979v-15.372h-6.23c-0.449,0-0.779,0.079-0.99,0.235
		c-0.211,0.157-0.371,0.452-0.479,0.884h-0.453v-4.05h0.453c0.107,0.41,0.27,0.692,0.482,0.846c0.214,0.154,0.543,0.23,0.986,0.23
		h14.945c0.439,0,0.764-0.078,0.975-0.235c0.211-0.156,0.364-0.437,0.461-0.841h0.488v4.05h-0.488
		c-0.097-0.427-0.253-0.72-0.469-0.88c-0.217-0.159-0.551-0.239-1-0.239H505.814z"/>
	<path fill="#FFFFFF" d="M520.23,275.166v6.725c0,0.444,0.077,0.768,0.23,0.971c0.154,0.201,0.45,0.368,0.889,0.499v0.453h-4.656
		v-0.453c0.433-0.125,0.722-0.289,0.867-0.491c0.145-0.202,0.218-0.528,0.218-0.979v-15.263c0-0.456-0.074-0.789-0.222-1
		c-0.148-0.211-0.437-0.368-0.863-0.47v-0.494h11.379c1.133,0,2.128,0.079,2.982,0.235c0.855,0.157,1.622,0.488,2.301,0.995
		c0.638,0.456,1.131,1.034,1.479,1.735s0.521,1.453,0.521,2.256c0,3.031-1.817,4.734-5.452,5.11l4.787,7.597
		c0.268,0.427,0.723,0.695,1.365,0.803v0.419h-4.717v-0.453c0.444-0.125,0.667-0.265,0.667-0.419c0-0.096-0.129-0.379-0.386-0.846
		l-4.421-6.93H520.23z M520.23,273.277h7.32c1.75,0,3.098-0.185,4.044-0.556c0.946-0.371,1.419-1.284,1.419-2.738
		c0-0.508-0.109-0.999-0.329-1.472c-0.22-0.474-0.528-0.858-0.928-1.155c-0.804-0.536-2.123-0.804-3.959-0.804h-7.567V273.277z"/>
	<path fill="#FFFFFF" d="M538.67,265.126v-0.462h4.658v0.462c-0.434,0.103-0.729,0.259-0.885,0.47c-0.156,0.211-0.234,0.544-0.234,1
		v9.869v0.837c0,1.806,0.396,3.042,1.195,3.708c1.023,0.82,2.783,1.23,5.277,1.23c2.754,0,4.607-0.501,5.559-1.504
		c0.586-0.586,0.879-1.649,0.879-3.188v-1.085v-9.869c0-0.456-0.078-0.789-0.234-1c-0.156-0.21-0.451-0.367-0.885-0.47v-0.462h4.238
		v0.462c-0.416,0.103-0.701,0.259-0.854,0.47c-0.154,0.211-0.232,0.544-0.232,1v10.322c0,1.418-0.121,2.576-0.367,3.473
		c-0.244,0.898-0.809,1.676-1.693,2.337c-0.826,0.609-1.787,1.012-2.885,1.209c-1.098,0.196-2.344,0.295-3.74,0.295
		c-0.975,0-1.863-0.041-2.666-0.124c-0.805-0.083-1.596-0.263-2.373-0.538c-0.779-0.276-1.455-0.674-2.031-1.192
		c-0.707-0.661-1.156-1.413-1.35-2.256c-0.194-0.843-0.291-1.911-0.291-3.204v-10.322c0-0.456-0.074-0.789-0.223-1
		C539.385,265.385,539.098,265.229,538.67,265.126z"/>
	<path fill="#FFFFFF" d="M565.519,274.85v7.041c0,0.444,0.077,0.768,0.231,0.971c0.153,0.201,0.449,0.368,0.889,0.499v0.453h-4.657
		v-0.453c0.433-0.125,0.722-0.289,0.867-0.491s0.218-0.528,0.218-0.979v-15.263c0-0.456-0.074-0.789-0.223-1
		c-0.147-0.211-0.436-0.368-0.862-0.47v-0.494h15.542c0.456,0,0.791-0.074,1.005-0.222c0.213-0.148,0.368-0.433,0.466-0.854h0.461
		v4.05h-0.461c-0.097-0.427-0.252-0.714-0.466-0.863c-0.214-0.148-0.548-0.222-1.004-0.222h-12.006v6.409h7.811
		c0.449,0,0.783-0.075,0.999-0.227c0.217-0.151,0.373-0.437,0.471-0.859h0.453v4.059h-0.453c-0.098-0.421-0.254-0.708-0.471-0.859
		c-0.216-0.151-0.55-0.227-0.999-0.227H565.519z"/>
	<path fill="#FFFFFF" d="M586.171,274.85v7.041c0,0.444,0.077,0.768,0.231,0.971c0.153,0.201,0.449,0.368,0.889,0.499v0.453h-4.657
		v-0.453c0.433-0.125,0.722-0.289,0.867-0.491s0.218-0.528,0.218-0.979v-15.263c0-0.456-0.074-0.789-0.223-1
		c-0.147-0.211-0.436-0.368-0.862-0.47v-0.494h15.542c0.456,0,0.791-0.074,1.005-0.222c0.213-0.148,0.368-0.433,0.466-0.854h0.461
		v4.05h-0.461c-0.097-0.427-0.252-0.714-0.466-0.863c-0.214-0.148-0.548-0.222-1.004-0.222h-12.006v6.409h7.811
		c0.449,0,0.783-0.075,0.999-0.227c0.217-0.151,0.373-0.437,0.471-0.859h0.453v4.059h-0.453c-0.098-0.421-0.254-0.708-0.471-0.859
		c-0.216-0.151-0.55-0.227-0.999-0.227H586.171z"/>
	<path fill="#FFFFFF" d="M606.824,281.925h11.689c0.456,0,0.789-0.073,1-0.222s0.367-0.436,0.47-0.863h0.462v4.059h-0.462
		c-0.103-0.427-0.26-0.715-0.471-0.863s-0.544-0.222-1-0.222h-15.226v-0.487c0.427-0.107,0.715-0.268,0.862-0.479
		c0.148-0.211,0.223-0.541,0.223-0.991v-15.261c0-0.456-0.074-0.789-0.223-1c-0.147-0.21-0.436-0.367-0.862-0.47v-0.462h4.657v0.462
		c-0.434,0.103-0.729,0.259-0.885,0.47c-0.157,0.211-0.235,0.544-0.235,1V281.925z"/>
	<path fill="#FFFFFF" d="M626.358,274.85v7.075h11.835c0.45,0,0.783-0.075,1-0.226c0.216-0.151,0.373-0.438,0.47-0.859h0.487v4.059
		h-0.487c-0.098-0.422-0.254-0.707-0.471-0.858s-0.55-0.227-1-0.227h-15.371v-0.487c0.427-0.107,0.715-0.268,0.863-0.479
		c0.147-0.211,0.222-0.541,0.222-0.991v-15.263c0-0.456-0.074-0.789-0.222-1c-0.148-0.211-0.437-0.368-0.863-0.47v-0.459h15.26
		c0.45,0,0.782-0.078,0.996-0.235c0.214-0.156,0.372-0.437,0.475-0.841h0.462v4.05h-0.462c-0.097-0.427-0.252-0.72-0.466-0.88
		c-0.213-0.159-0.548-0.239-1.004-0.239h-11.724v6.477h7.46c0.45,0,0.782-0.08,0.995-0.239c0.214-0.159,0.372-0.453,0.475-0.88
		h0.487v4.059h-0.487c-0.103-0.41-0.261-0.693-0.475-0.85c-0.213-0.157-0.545-0.235-0.995-0.235H626.358z"/>
	<path fill="#FFFFFF" d="M661.88,265.675l-1.854,3.706l-0.418-0.167c0.045-0.331,0.068-0.576,0.068-0.736
		c0-0.205-0.108-0.38-0.325-0.526s-0.47-0.287-0.761-0.424c-1.549-0.838-3.415-1.258-5.597-1.258c-1.635,0-3.151,0.287-4.55,0.86
		c-1.398,0.574-2.098,1.559-2.098,2.956c0,0.553,0.155,1.051,0.466,1.493c0.31,0.442,0.739,0.763,1.286,0.962
		c0.615,0.2,1.396,0.339,2.341,0.419c0.559,0.017,1.169,0.042,1.833,0.077c0.663,0.034,1.197,0.057,1.602,0.068
		c1.539,0.052,2.758,0.136,3.658,0.252c0.899,0.117,1.731,0.395,2.494,0.833c0.719,0.41,1.26,0.979,1.624,1.705
		c0.364,0.727,0.547,1.522,0.547,2.389c0,1.367-0.455,2.497-1.366,3.388c-0.911,0.892-2.046,1.541-3.404,1.948
		s-2.694,0.611-4.01,0.611c-2.272,0-4.431-0.408-6.475-1.223c-0.991-0.398-1.854-0.794-2.588-1.188
		c-0.16-0.119-0.288-0.18-0.385-0.18c-0.159,0-0.367,0.129-0.623,0.385l-0.18,0.214l-0.384-0.248l2.167-3.64l0.417,0.213
		c-0.113,0.114-0.17,0.359-0.17,0.735c0,0.12,0.069,0.252,0.209,0.397c0.139,0.145,0.313,0.286,0.523,0.423
		c0.211,0.137,0.414,0.256,0.61,0.359c0.195,0.103,0.328,0.174,0.396,0.213c1.959,1.031,4.084,1.547,6.374,1.547
		c0.945,0,1.92-0.124,2.923-0.372c1.002-0.248,1.856-0.666,2.563-1.256c0.707-0.589,1.061-1.366,1.061-2.328
		c0-0.53-0.153-1.019-0.458-1.466c-0.305-0.447-0.702-0.765-1.191-0.953c-0.484-0.159-0.988-0.273-1.513-0.342
		s-1.198-0.115-2.021-0.141c-0.823-0.025-1.255-0.038-1.295-0.038c-1.668-0.08-2.887-0.157-3.658-0.231
		c-0.771-0.074-1.623-0.269-2.557-0.585c-0.934-0.316-1.693-0.821-2.279-1.517c-0.587-0.695-0.88-1.632-0.88-2.812
		c0-1.367,0.453-2.493,1.358-3.379c0.905-0.886,2.029-1.531,3.373-1.935c1.344-0.405,2.671-0.607,3.98-0.607
		c2.597,0,5.093,0.536,7.49,1.608c0.342,0.136,0.541,0.204,0.598,0.204c0.228,0,0.447-0.207,0.657-0.621L661.88,265.675z"/>
</g>
</svg>
